<?xml version="1.0" ?><svg id="Layer_2" style="enable-background:new 0 0 32 32;" version="1.1" viewBox="0 0 32 32" xml:space="preserve" xmlns="http://www.w3.org/2000/svg" xmlns:xlink="http://www.w3.org/1999/xlink"><g><path d="M16,0.5C7.45001,0.5,0.5,7.45001,0.5,16S7.45001,31.5,16,31.5S31.5,24.54999,31.5,16S24.54999,0.5,16,0.5z    M23.53998,17.23999l-10.02997,6.90997c-0.26001,0.17004-0.56,0.26001-0.85004,0.26001c-0.23999,0-0.47998-0.06-0.69995-0.16998   c-0.5-0.26001-0.80005-0.77002-0.80005-1.33002V9.08997c0-0.56,0.30005-1.07001,0.80005-1.32996   C12.45001,7.5,13.04999,7.53998,13.51001,7.84998l10.02997,6.91003C23.95001,15.03998,24.19,15.51001,24.19,16   S23.95001,16.95996,23.53998,17.23999z"/><polygon points="14.15997,20.06 20.03998,16 14.15997,11.94  "/></g></svg>